<svg id="466f02e7-6a67-402d-8cce-c2295d11ff8c" data-name="Layer 1" xmlns="http://www.w3.org/2000/svg" viewBox="0 0 28 28"><title>bakery-logo-xsimple</title><circle cx="14" cy="14.16" r="14" fill="#0e30da"/><path d="M18.92,14.18a4.45,4.45,0,0,0-.89-.8,4.48,4.48,0,0,0,.81-2.6,4.33,4.33,0,0,0-1.2-3.17,4.51,4.51,0,0,0-3.3-1.31H11.23A1.31,1.31,0,0,0,9.92,7.61V20.48a1.31,1.31,0,0,0,1.31,1.31H16A4.53,4.53,0,0,0,19,20.16a4.6,4.6,0,0,0,1-2.92A4.77,4.77,0,0,0,18.92,14.18ZM12.54,9.3a.37.37,0,0,1,.38-.37h1.42c1.31,0,1.85.67,1.85,1.69s-.36,1.8-1.89,1.84H12.92a.39.39,0,0,1-.39-.38Zm2.81,9.87H12.86a.32.32,0,0,1-.32-.33V15.43a.33.33,0,0,1,.31-.32h.53l1.8,0a2,2,0,0,1,2.21,2A2,2,0,0,1,15.35,19.17Z" fill="#fff"/></svg>