<svg id="e3e3558c-2f19-4bed-a201-88127ad607aa" data-name="Layer 1" xmlns="http://www.w3.org/2000/svg" viewBox="0 0 362 260"><title>illustration-bakery</title><ellipse cx="200.53" cy="248.39" rx="77.76" ry="3.9" fill="#1a3551" opacity="0.1"/><path d="M161.29,189.41s-1.85,37.72-.11,60.29" fill="none" stroke="#454545" stroke-miterlimit="10" stroke-width="0.58"/><path d="M201.66,190.48s-4.6,37.23,27.22,22.76" fill="none" stroke="#454545" stroke-miterlimit="10" stroke-width="0.58"/><path d="M209.21,18.22s4-16.2,19.09-13.89,16.21,95.49,13.89,115.16c0,0-42.24,26-132.52,8.68,0,0,5.25-25.71-6.36-67.7-7.52-27.2,6.81-39.92,21.41-48C135.14,6.65,184.32-4.35,209.21,18.22Z" fill="#454545"/><path d="M215,104.45c3.48,34.14,20.26,75.8,20.26,75.8-42.25,22-91.43,6.95-91.43,6.95-.58-15.63.58-86.81.58-86.81Z" fill="#f8b232" stroke="#454545" stroke-miterlimit="10" stroke-width="1.16"/><path d="M130.25,27.8a187,187,0,0,0-5.18,67.5S168,111.36,224.89,103c0,0,8.16-15.63,5.18-67.51C230.07,35.46,188.79,13.72,130.25,27.8Z" fill="#fff" stroke="#454545" stroke-miterlimit="10" stroke-width="1.16"/><path d="M126.07,48.13C186.45,36.28,196.48,24,196.48,24l-53.82-7-18.52,9.26Z" fill="#454545"/><path d="M231.36,56.45c-23.21-7.58-27.94-31.28-27.94-31.28l30.09,8.1Z" fill="#454545"/><path d="M132.53,99s-1.51-20.6,1.95-35.43c0,0,41.73-13.59,97,1.29" fill="none" stroke="#454545" stroke-miterlimit="10" stroke-width="1.16"/><path d="M146.72,47.63s-6.66-4-10.69,3.24" fill="none" stroke="#454545" stroke-miterlimit="10" stroke-width="1.16"/><path d="M181.83,43.94s4.44-4.88,9.81.76" fill="none" stroke="#454545" stroke-miterlimit="10" stroke-width="1.16"/><path d="M151.68,102a36.2,36.2,0,0,1,.77-8s12.92-3.84,46.94,11.34" fill="none" stroke="#454545" stroke-miterlimit="10" stroke-width="0.58"/><path d="M144.34,61a38.1,38.1,0,0,0-1.12,9.6c.27,4.08,7.37,9.85,10.52,6.61s-2.4-6.57,2.35-7.94S188.6,59.08,230,77" fill="none" stroke="#454545" stroke-miterlimit="10" stroke-width="0.58"/><path d="M180.27,158.84s-29.68-32.58-13.88-39.35c8.1-3.47,8.68,8.68,13.31,8.1s4.62-11.57,14.46-8.68S191.85,149.58,180.27,158.84Z" fill="#c4314e"/><path d="M148.45,138.59s7.52,27.77,27.77-1.74" fill="none" stroke="#454545" stroke-miterlimit="10" stroke-width="0.58"/><path d="M211.52,135.69s-3.47,28.36-22,0" fill="none" stroke="#454545" stroke-miterlimit="10" stroke-width="0.58"/></svg>