<?xml version="1.0" encoding="utf-8"?>
<!-- Generator: Adobe Illustrator 22.1.0, SVG Export Plug-In . SVG Version: 6.00 Build 0)  -->
<svg version="1.1" id="Layer_1" xmlns="http://www.w3.org/2000/svg" xmlns:xlink="http://www.w3.org/1999/xlink" x="0px" y="0px"
	 viewBox="0 0 362 260" style="enable-background:new 0 0 362 260;" xml:space="preserve">
<style type="text/css">
	.st0{fill:#F5F4F4;}
	.st1{fill:#454545;}
	.st2{fill:#F8B232;stroke:#454545;stroke-width:2.8633;stroke-miterlimit:10;}
	.st3{fill:#F8B232;stroke:#454545;stroke-width:2;stroke-miterlimit:10;}
	.st4{fill:#FFFFFF;stroke:#454545;stroke-width:2;stroke-miterlimit:10;}
	.st5{fill:#F8B232;}
	.st6{fill:none;stroke:#60605F;stroke-miterlimit:10;}
	.st7{fill:#444444;}
	.st8{fill:#FFFFFF;}
	.st9{fill:none;stroke:#1A3551;stroke-miterlimit:10;}
	.st10{fill:none;stroke:#193450;stroke-width:0.5821;stroke-miterlimit:10;}
	.st11{fill:none;stroke:#1A3551;stroke-linejoin:round;stroke-miterlimit:10;}
	.st12{fill:#193450;}
	.st13{opacity:0.1;fill:#1A3551;}
	.st14{fill:none;stroke:#193450;stroke-width:0.5821;stroke-linecap:round;stroke-linejoin:round;stroke-miterlimit:10;}
	.st15{fill:#1A3551;}
	.st16{fill:none;stroke:#1A3551;stroke-width:0.6133;stroke-miterlimit:10;}
	.st17{opacity:0.15;fill:#9D9EA7;}
	.st18{fill:#60605F;}
	.st19{fill:none;stroke:#60605F;stroke-width:0.5821;stroke-miterlimit:10;}
	.st20{fill:none;stroke:#60605F;stroke-linejoin:round;stroke-miterlimit:10;}
	.st21{fill:none;stroke:#F8B231;stroke-width:2;stroke-miterlimit:10;}
	.st22{opacity:0.1;fill:#60605F;}
	.st23{fill:none;stroke:#60605F;stroke-width:0.5821;stroke-linecap:round;stroke-linejoin:round;stroke-miterlimit:10;}
	.st24{fill:#C4314E;}
	.st25{fill:#F6F5F4;stroke:#60605F;stroke-miterlimit:10;}
	.st26{fill:none;stroke:#60605F;stroke-width:0.6133;stroke-miterlimit:10;}
	.st27{fill:#F6F5F4;stroke:#60605F;stroke-width:0.6133;stroke-miterlimit:10;}
	.st28{fill:#F6F5F4;stroke:#60605F;stroke-width:0.5821;stroke-miterlimit:10;}
	.st29{fill:none;stroke:#FFFFFF;stroke-width:0.5507;stroke-miterlimit:10;}
	.st30{fill:none;stroke:#454545;stroke-miterlimit:10;}
	.st31{fill:none;stroke:#454545;stroke-width:2;stroke-miterlimit:10;}
	.st32{fill:none;stroke:#454545;stroke-width:1.4316;stroke-miterlimit:10;}
	.st33{fill:none;stroke:#FFFFFF;stroke-width:2;stroke-miterlimit:10;}
	.st34{fill:none;stroke:#454545;stroke-width:0.591;stroke-miterlimit:10;}
	.st35{fill:#F8B232;stroke:#454545;stroke-width:1.1821;stroke-miterlimit:10;}
	.st36{fill:#FFFFFF;stroke:#454545;stroke-width:1.1821;stroke-miterlimit:10;}
	.st37{fill:none;stroke:#454545;stroke-width:1.1821;stroke-miterlimit:10;}
</style>
<ellipse class="st13" cx="197" cy="251.4" rx="79.4" ry="4"/>
<path class="st34" d="M156.9,191.1c0,0-1.9,38.5-0.1,61.6"/>
<path class="st34" d="M198.1,192.2c0,0-4.7,38,27.8,23.2"/>
<path class="st1" d="M205.9,16.3c0,0,4.1-16.5,19.5-14.2s16.5,97.5,14.2,117.6c0,0-43.1,26.6-135.3,8.9c0,0,5.4-26.3-6.5-69.2
	c-7.7-27.8,7-40.8,21.9-49.1C130.2,4.5,180.4-6.8,205.9,16.3z"/>
<path class="st35" d="M211.8,104.4c3.5,34.9,20.7,77.4,20.7,77.4c-43.1,22.5-93.4,7.1-93.4,7.1c-0.6-16,0.6-88.7,0.6-88.7
	L211.8,104.4z"/>
<path class="st36" d="M125.2,26.1c0,0-9.6,31.9-5.3,68.9c0,0,43.8,16.4,102,7.8c0,0,8.3-16,5.3-68.9C227.2,33.9,185,11.7,125.2,26.1
	z"/>
<path class="st1" d="M120.9,46.8c61.7-12.1,71.9-24.6,71.9-24.6l-55-7.1L119,24.6L120.9,46.8z"/>
<path class="st1" d="M228.5,55.3c-23.7-7.7-28.5-32-28.5-32l30.7,8.3L228.5,55.3z"/>
<path class="st37" d="M127.5,98.8c0,0-1.5-21,2-36.2c0,0,42.6-13.9,99.1,1.3"/>
<path class="st37" d="M142,46.3c0,0-6.8-4.1-10.9,3.3"/>
<path class="st37" d="M177.9,42.6c0,0,4.5-5,10,0.8"/>
<path class="st34" d="M147.1,101.8c0,0-0.2-3.5,0.8-8.2c0,0,13.2-3.9,47.9,11.6"/>
<path class="st34" d="M139.6,60c0,0-1.4,5.6-1.1,9.8s7.5,10.1,10.7,6.8c3.2-3.3-2.4-6.7,2.4-8.1c4.9-1.4,33.2-10.4,75.5,7.9"/>
<path class="st24" d="M176.3,159.9c0,0-30.3-33.3-14.2-40.2c8.3-3.5,8.9,8.9,13.6,8.3c4.7-0.6,4.7-11.8,14.8-8.9
	S188.1,150.5,176.3,159.9z"/>
<path class="st34" d="M143.8,139.2c0,0,7.7,28.4,28.4-1.8"/>
<path class="st34" d="M208.2,136.3c0,0-3.5,29-22.5,0"/>
</svg>
