<?xml version="1.0" encoding="utf-8"?>
<!-- Generator: Adobe Illustrator 25.3.1, SVG Export Plug-In . SVG Version: 6.00 Build 0)  -->
<svg version="1.1" id="Layer_1" xmlns="http://www.w3.org/2000/svg" xmlns:xlink="http://www.w3.org/1999/xlink" x="0px" y="0px"
	 viewBox="0 0 454 442" style="enable-background:new 0 0 454 442;" xml:space="preserve">
<style type="text/css">
	.st0{fill:#FFFFFF;}
</style>
<path class="st0" d="M55.5,198.4c-0.4-44.5-0.8-89-1.2-133.4c-0.1-8.3,1-9.5,9.5-10.1c24.1-1.8,48.1-3.6,72.2-5.2
	c4.9-0.3,9.8-0.1,14.7-0.3c40.3-1.9,80.6-2.4,120.9-2c16.9,0.2,33.8,0.9,50.6,1.8c16.3,0.9,32.6,2.2,48.9,3.5
	c3.8,0.3,7.6,0.9,11.2,1.9c4.2,1.1,4.7,2.4,4,6.7c-0.2,1.2-0.3,2.6,0,3.7c3.4,13.3,3.5,27,3.9,40.6c0.7,21.4,1.2,42.8,1.2,64.2
	c0,16.9-1,33.8-1.4,50.6c-0.2,9.2,0.2,18.5,0.4,27.8c0.4,22,0.9,43.9,1.4,65.9c0.4,18,0.8,35.9,1.2,53.9c0.1,2.3,0.4,4.7,0.7,7
	c0.6,4.4-1,7-5.3,8c-1.6,0.4-3.2,0.4-4.9,0.4c-16.5-0.5-33-1-49.5-1.5c-6.7-0.2-13.4-0.1-20.1-0.4c-24.3-0.9-48.6-2-72.9-2.9
	c-19.1-0.7-38.1-1.2-57.2-1.8c-20.3-0.6-40.6-1.3-61-1.7c-14.5-0.3-29.1-0.4-43.6,0c-11.9,0.3-15.8-6.1-17.1-15.5
	c-1.2-8.8-2-17.7-2.4-26.6c-0.9-21.2-1.5-42.5-2.3-63.7c-0.9-23.6-1.8-47.2-2.7-70.7C55.1,198.4,55.3,198.4,55.5,198.4z M73.1,364.1
	c2.4,0,4.4,0,6.4,0c12.2-0.2,24.3-0.7,36.5-0.6c10.9,0.1,21.8,1.2,32.6,1.3c45,0.5,90,1.9,135,4.4c29.5,1.7,59.2,1.2,88.7,1.6
	c2.9,0,5.8-0.2,8.7-0.3c2.2-0.1,3.4-1.2,3.5-3.4c0.1-1.3,0.1-2.5,0-3.8c-1-17-2.2-34-3-51.1c-1.2-23.9-2.5-47.9-3.2-71.8
	c-0.5-18.5,0-37,0-55.6c-0.1-34.5-0.3-69-0.4-103.5c0-6.1,0-12.2,0-18.3c-1.6-0.5-2.6-0.9-3.6-1c-10.3-1.1-20.5-2.6-30.9-3.2
	c-22.5-1.3-45-2.6-67.4-3.3c-43.9-1.3-87.9-0.6-131.8,1.1c-8.2,0.3-16.3,0.7-24.5,1.2C100.8,59,82,60.1,63.1,61.2
	c-1.3,0.1-2.7,0.3-4,0.5c0.8,9.2,1.8,17.8,2.3,26.5c1.5,21.5,3.1,43.1,4,64.7c0.9,21.6,1,43.2,1.4,64.8c0.1,5.8,0.1,11.6,0.3,17.4
	c0.6,16.7,1.3,33.4,2,50.1c0.8,18.9,1.4,37.7,2.3,56.6C71.9,349,72.5,356.2,73.1,364.1z"/>
<path class="st0" d="M134.1,213.5c1.4,1.9,2.8,3.8,4.3,5.6c6.8,8.2,10.6,17.6,11.5,28.3c1.1,12.7,1.9,25.4-0.3,38
	c-0.8,4.4-2.2,8.9-4.3,12.8c-3.3,6.2-7.2,12.2-11.2,18c-3.5,5.1-7,5-11.6,0.7c-3.3-3.1-4.8-6.7-5.2-11c-1.1-13.6-2.1-27.1-3.2-40.7
	c-2.8-34.4-3.8-68.9-4.6-103.4c-0.3-12.3-1.2-24.6-1.8-37c-0.1-2-0.1-4,0-6c0.3-5.6,2.3-7.3,7.9-7.2c8.6,0.1,14.7,4.7,19.6,11.2
	c4.6,6,7,13.1,8.9,20.3c6.3,23.5,4.3,46-8.4,67.2C135.1,211.3,134.7,212.3,134.1,213.5z M124.6,202.6c0.4,0.1,0.8,0.1,1.2,0.2
	c0.8-1.5,1.7-3.1,2.5-4.6c7.8-16.3,8.4-33.2,4.7-50.5c-1.4-6.8-3.5-13.4-7.7-19c-1.1-1.4-2-3.5-4.2-3.3
	C122.3,151.2,123.4,176.9,124.6,202.6z M129.9,300.1c4.4-5,6.4-8.9,7.1-14.5c1.9-13.2,0.4-26.4-0.8-39.5c-0.2-2.5-0.9-5-1.6-7.4
	c-1.6-5.2-5.6-11-9.8-14C125.4,250,127.8,274.5,129.9,300.1z"/>
<path class="st0" d="M190.3,234.6c-5.5-0.5-10.5-1-16.1-1.6c-0.2,3-0.5,5.5-0.6,8c-0.3,24.4-3.2,48.5-7.6,72.5
	c-0.3,1.8-0.8,3.6-1.6,5.1c-0.4,0.8-1.8,1.5-2.6,1.5c-0.8-0.1-1.9-1-2.3-1.9c-0.5-1.3-0.7-2.8-0.6-4.2c0.3-6.7,0.6-13.4,1.2-20.1
	c1.6-17.4,3-34.7,3.4-52.1c0.3-12.1,2.1-24.2,3.2-36.3c0.6-6.7,1.4-13.4,1.7-20.1c0.7-16,1.4-31.9,4.5-47.6c0.6-2.8,1.3-5.7,2.6-8.3
	c2.7-5.1,7.9-5.6,11.5-1c1.8,2.2,3.3,4.9,4,7.7c2.4,9.3,4.7,18.6,6.5,28.1c3,15.9,3.6,32.1,4.4,48.2c0.9,20.3,2.3,40.6,3.3,60.9
	c0.5,9.4,0.7,18.9,1,28.3c0.1,1.6,0.1,3.3-0.1,4.9c-0.5,3.4-2.9,5.6-5.7,5.5c-2.6-0.1-4.8-2.2-5.3-5.3c-0.2-1.4-0.1-2.9-0.2-4.4
	c-1.2-21.2-2.3-42.4-3.6-63.6C191.1,237.5,190.7,236.3,190.3,234.6z M190.1,224.1c-0.2-27.9-1.4-55-7.9-81.7
	c-0.9,1.4-1.3,2.7-1.5,4.1c-0.3,2.3-0.6,4.7-0.6,7c-0.9,22.1-1.2,44.2-4.6,66.1c-0.2,1.1,0,2.4,0,3.5
	C180.4,223.4,184.9,223.7,190.1,224.1z"/>
<path class="st0" d="M235.2,262.6c0,3.7,0,6.3,0,8.9c-0.1,9.6-0.1,19.2-0.3,28.8c0,1.4-0.3,3-1.1,4.1c-0.8,1.2-2.4,2.6-3.6,2.6
	s-3.1-1.5-3.4-2.7c-0.8-2.5-1-5.3-1.1-8c-0.1-7.4-0.1-14.8,0-22.3c0.2-16.3,0.3-32.6,0.8-48.9c0.2-6.2,1.9-7.3,8-7.9
	c14.6-1.5,21.5,12,20.6,22.8c-0.6,7.1-3.1,13.4-9.3,18.1c1.1,1.6,2,2.9,3,4.1c11.8,14.7,23.6,29.4,32.3,46.3
	c0.7,1.5,1.6,2.9,2.2,4.4c0.9,2.3,0.1,4.4-1.8,5.8c-2,1.3-4.3,1.2-6-0.5c-1.5-1.5-2.9-3.3-4-5.1c-9.6-16.5-21.3-31.5-32.6-46.8
	C237.8,265.1,236.8,264.3,235.2,262.6z M234,252c10.8-2.6,14.8-15.5,8.3-23.1c-2.2-2.6-5-3.9-8.3-3.1C234,234.7,234,243.1,234,252z"
	/>
<path class="st0" d="M232.9,150.9c1.1-1.4,2.2-2.7,3.3-4.1c5.3-7.4,10.5-14.8,15.8-22.2c1.2-1.7,2.5-4.3,5.1-2.8
	c2.4,1.4,1.4,4,0.4,5.9c-3.6,6.5-7.4,12.9-11.2,19.3c-0.7,1.2-1.6,2.4-2.7,3.8c5,7.8,9.9,15.6,14.8,23.4c3.7,5.8,7.5,11.6,11,17.5
	c1.1,1.8,2,3.9,2.5,5.9c0.6,2.4,0.1,4.8-2.5,6c-2.3,1.1-4.7,0.7-6.5-1.1c-1.1-1.1-2.1-2.5-3-3.9c-7.1-11.6-14.2-23.2-21.4-34.7
	c-1-1.6-1.5-4.2-4.2-3.2c-2.6,0.9-1.6,3.3-1.6,5.2c0.2,6.2,0.8,12.3,0.9,18.5c0.1,3.2-0.4,6.5-0.9,9.7c-0.2,1.4-0.8,2.8-1.5,4.1
	c-1,1.9-2.6,3-4.8,2.9c-2.5-0.1-4.2-1.6-4.9-3.7c-0.7-2.4-1.1-4.9-1.2-7.5c-0.7-11.4-1.5-22.8-2-34.2c-0.4-10.7-0.5-21.4-0.5-32.1
	c0-3.7,1.9-5.9,4.8-6.3c2.8-0.4,5.7,1.3,6.5,4.6c0.9,3.5,1.2,7.1,1.4,10.7c0.4,5.9,0.6,11.9,0.8,17.8
	C232,150.7,232.4,150.8,232.9,150.9z"/>
<path class="st0" d="M297.6,130.5c0,8.3,0,16,0,24.5c2.9,0,5.6,0,8.2,0c3.8,0,7.6-0.2,11.4-0.1c3.8,0.1,5.5,1.5,5.5,3.9
	c0,2.4-1.7,4-5.3,4.4s-7.2,0.3-10.9,0.4c-2.7,0.1-5.4,0-8.9,0c0.3,9.3,0.6,17.9,0.9,27.1c3.6-0.3,6.8-0.7,10-0.9
	c6.2-0.3,12.3-0.4,18.5-0.5c1.6,0,3.2,0.4,4.8,0.8c2.1,0.6,3.4,2.2,3.5,4.4c0,2.3-1.4,3.7-3.4,4.5c-1.1,0.4-2.5,0.5-3.7,0.6
	c-10.1,1-20.2,2.1-30.3,3.1c-1.3,0.1-2.5,0.2-3.8,0.2c-4.1-0.2-6.1-2-6.1-6c-0.2-20.1-0.4-40.3-0.6-60.4c0-0.9,0.1-1.8,0.2-2.7
	c0.8-9.2,1-10,10.1-12c6.3-1.4,12.9-1.8,19.4-2.3c1.9-0.2,4,0.4,5.8,1.1c3,1.1,3.4,3.6,0.7,5.2c-2.5,1.4-5.3,2.4-8.1,2.9
	c-4.6,0.8-9.4,1-14.1,1.4C300.2,130.1,299.2,130.2,297.6,130.5z"/>
<path class="st0" d="M315.4,253.9c1-2.7,1.9-5,2.7-7.3c1.5-4.3,3-8.6,4.5-12.8c0.4-1.2,0.8-2.5,1.6-3.4c0.7-0.9,2.4-2,2.9-1.7
	c1.1,0.5,2.1,1.9,2.3,3.1c0.3,1.5-0.1,3.2-0.5,4.8c-2.8,10.3-5.7,20.6-8.6,30.9c-3.4,12.2-6.8,24.5-10.3,36.7
	c-0.9,3.1-2.2,6.1-3.6,9.1c-1,2.1-2.9,3.4-5.4,2.7c-2.6-0.7-3.2-3-2.9-5.2c0.4-3,1.1-6.1,2-9c3.2-10.4,6.4-20.8,9.8-31.1
	c1-2.9,0.6-4.8-1.6-7.2c-7.6-8.5-14.9-17.4-22.1-26.2c-1.8-2.2-3.2-4.9-4.2-7.5c-0.4-1.2,0.2-3.5,1.1-4.2c1-0.7,3.2-0.5,4.4,0.1
	c1.5,0.8,2.7,2.4,3.9,3.7c7.2,7.6,14.4,15.3,21.6,23C313.5,252.7,314.2,253,315.4,253.9z"/>
</svg>
